<svg viewBox="0 0 60 60">
<path d="M49.9494 9C52.7628 9 54.9973 11.3169 54.9973 14.142L54.993 42.8848C55.1272 45.1845 53.3054 47.0751 50.9862 47.0747C50.8576 47.0722 50.8576 47.0722 50.3081 47.0624C49.7831 47.0531 49.2271 47.0439 48.6648 47.0353C48.0466 47.026 47.807 47.0226 47.4045 47.0173C46.3543 47.0037 45.4896 46.9961 44.8786 46.9961C39.3391 46.9961 34.9148 48.0877 34.5522 49.5852L34.0893 51.4966H25.9145L25.4516 49.5852C25.089 48.0877 20.6647 46.9961 15.1253 46.9961C14.5143 46.9961 13.6495 47.0037 12.5993 47.0173C12.1969 47.0226 11.9573 47.026 11.339 47.0353C10.7768 47.0439 10.2207 47.0531 9.69571 47.0624C9.27953 47.0698 9.17855 47.0716 9.07756 47.0733C9.04521 47.0739 9.01286 47.0744 8.97015 47.0751C6.69844 47.0751 4.87659 45.1845 5.00655 43.0305V14.142C5.00655 11.3169 7.24101 9 10.0544 9H17.7503C22.3768 9 27.1798 10.9114 30.0019 13.7242C32.824 10.9114 37.6271 9 42.2535 9H49.9494ZM27.502 44.441V18.9991C27.502 17.0144 22.5109 13.9995 17.7502 13.9995H10.0543C10.0435 13.9995 10.0061 14.0383 10.0061 14.1419L10.002 42.0566C10.4113 42.0496 10.835 42.0427 11.2623 42.0362C11.8855 42.0268 12.1276 42.0234 12.5342 42.0181C13.6043 42.0041 14.4877 41.9964 15.1252 41.9964C20.4458 41.9964 24.796 42.6169 27.502 44.441ZM49.9978 14.1419C49.9978 14.0383 49.9604 13.9995 49.9495 13.9995H42.2537C37.4929 13.9995 32.5018 17.0144 32.5018 18.9991V44.441C35.2079 42.6169 39.5581 41.9964 44.8787 41.9964C45.5162 41.9964 46.3996 42.0041 47.4697 42.0181C47.8762 42.0234 48.1183 42.0268 48.7415 42.0362C49.1675 42.0427 49.5897 42.0496 49.9978 42.0565V14.1419Z" fill="#E6E8EB"/>
</svg>
